<mxfile host="app.diagrams.net" modified="2024-06-10T02:58:41.101Z" agent="Mozilla/5.0 (Windows NT 10.0; Win64; x64; rv:125.0) Gecko/20100101 Firefox/125.0" version="24.5.2" etag="o7-ynypqzJ5CUfNHv1PJ" type="github">
  <diagram name="Page-1" id="rS7tcl85Awu7lfKM9GYZ">
    <mxGraphModel>
      <root>
        <mxCell id="0" />
        <mxCell id="1" parent="0" />
      </root>
    </mxGraphModel>
  </diagram>
</mxfile>
